<svg width="127" height="169" viewBox="0 0 127 169" fill="none" xmlns="http://www.w3.org/2000/svg">
<path d="M113.366 81.9486C108.525 77.6231 101.024 76.1024 96.2847 80.4617C92.6706 83.7734 90.7272 90.1604 96.387 96.4459C99.5238 99.8928 107.536 105.536 106.513 119.932C103.717 159.437 47.1195 160.18 26.526 160.18H23.5597C19.5024 160.18 18.5819 157.848 18.7864 155.753C24.2417 95.0266 108.593 75.832 109.173 29.3663C109.514 1.0138 80.0895 0 67.7812 0H0V3.61588C8.01236 3.61588 12.6493 14.9366 12.6493 22.4387V114.728C14.4563 111.315 16.468 107.969 18.6841 104.59C22.946 98.1356 27.6853 92.2217 32.595 86.6797V20.9856C32.595 15.0718 35.6635 11.118 40.6755 9.73245C42.278 9.36073 43.8123 9.19176 45.0056 9.19176H58.03C77.771 9.19176 86.5676 16.6263 86.5676 31.6305C86.5676 64.2747 9.03522 91.1742 9.03522 161.903V168.831L43.5395 169C60.9621 169 87.2154 165.35 102.081 156.598C116.367 148.183 125.811 134.328 126.902 116.181C127.959 98.7101 120.254 88.0652 113.366 81.9486Z" fill="#0B2739"/>
</svg>