<svg width="281" height="27" viewBox="0 0 281 27" fill="none" xmlns="http://www.w3.org/2000/svg">
<path d="M12.2048 10.4114C15.5223 8.26937 16.2246 6.72509 16.2246 4.55812C16.2246 1.64391 13.6577 0.44834 10.1222 0.44834H0V0.99631C1.18657 0.99631 1.88883 2.73985 1.88883 3.91052V23.9363C1.88883 25.1319 1.18657 26.0286 0 26.0286V26.5766H3.48707C11.4541 26.7758 18.9852 25.8044 18.9852 17.286C18.9852 13.1762 15.7887 10.1125 12.2048 10.4114ZM4.86737 3.68635C4.86737 2.51568 5.59385 1.86808 6.73199 1.86808H8.71768C11.333 1.86808 12.9312 2.91421 12.9312 4.95664C12.9312 7.24816 12.2532 8.69281 9.10513 10.5609L4.86737 13.1513V3.68635ZM15.7887 17.3607C15.3528 24.9078 9.90426 24.9078 6.34454 24.9078C5.40012 24.9078 4.84316 24.8579 4.84316 23.3137V14.571C6.48983 13.5249 8.93563 11.9557 11.2603 11.9557C14.3842 11.9557 15.9582 14.8201 15.7887 17.3607Z" fill="#0B2739"/>
<path d="M36.13 0C28.9379 0 23.344 6.00277 23.344 13.4502C23.344 20.8976 28.9379 26.9253 36.13 26.9253C43.322 26.9253 48.9159 20.8727 48.9159 13.4502C48.9159 6.02768 43.322 0 36.13 0ZM41.1184 24.1356C36.3963 26.1033 30.6572 23.0397 27.5818 16.9871C24.7001 11.2085 26.4679 4.75738 31.2142 2.78967C36.0331 0.797048 41.8691 3.76107 44.8234 9.83856C47.802 15.941 45.9616 22.143 41.1184 24.1356Z" fill="#0B2739"/>
<path d="M69.4509 0.99631C70.5648 0.99631 71.2913 3.11347 71.2913 4.30904L71.5092 21.5701L57.4883 0.871771C57.3914 0.722325 57.1735 0.44834 56.7376 0.44834H52.8146V0.99631C54.1223 0.99631 54.4129 2.41605 54.873 3.18819L54.7277 22.7408C54.7277 23.9364 54.0496 26.0286 52.8388 26.0286V26.5766H57.8031V26.0286C56.6407 26.0286 55.9869 23.9364 55.9869 22.7408L55.8658 4.58303C58.6264 8.91698 63.8812 15.8662 67.2715 21.2463C69.015 24.0111 71.485 26.5766 71.485 26.5766H72.3083L72.5021 4.30904C72.5021 3.11347 73.1559 0.99631 74.3425 0.99631V0.44834H69.4025V0.99631H69.4509Z" fill="#0B2739"/>
<path d="M94.8048 0.99631C95.9187 0.99631 96.6452 3.11347 96.6452 4.30904L96.8632 21.5701L82.8422 0.871771C82.7453 0.722325 82.5274 0.44834 82.0915 0.44834H78.1686V0.99631C79.4762 0.99631 79.7668 2.41605 80.2269 3.18819L80.0816 22.7159C80.0816 23.9114 79.4036 26.0037 78.1928 26.0037V26.5517H83.157V26.0037C81.9946 26.0037 81.3408 23.9114 81.3408 22.7159L81.2197 4.55812C83.9803 8.89207 89.2352 15.8413 92.6254 21.2214C94.3689 23.9862 96.8389 26.5517 96.8389 26.5517H97.6623L97.856 4.28413C97.856 3.08856 98.5098 0.971402 99.6964 0.971402V0.44834H94.7564V0.99631H94.8048Z" fill="#0B2739"/>
<path d="M119.142 0.44834H103.353V0.99631C104.54 0.99631 105.242 2.98893 105.242 4.1845V22.8902C105.242 24.0858 104.54 26.0286 103.353 26.0286V26.5766H119.142C119.553 26.5766 119.917 26.2279 119.917 25.7795V21.4954H119.384C119.384 23.7371 117.277 25.4806 111.732 25.4806H109.431C108.753 25.4806 108.22 24.9327 108.22 24.2352V13.9732C111.659 13.9732 115.219 14.3967 115.219 16.2897H115.727V10.81H115.219C115.219 12.6282 111.659 13.1264 108.22 13.1264V1.56919C109.431 1.56919 111.15 1.56919 111.732 1.56919C117.325 1.56919 119.384 3.23801 119.384 5.57934H119.892V1.04613C119.892 0.523063 119.602 0.44834 119.142 0.44834Z" fill="#0B2739"/>
<path d="M188.956 0.99631C190.07 0.99631 190.796 3.11347 190.796 4.28413L190.942 16.4889C190.942 21.1218 188.956 25.1817 184.016 25.1817C180.165 25.1817 177.405 21.3459 177.405 17.1863V4.28413C177.405 3.13838 178.107 0.99631 179.221 0.99631V0.44834H172.586V0.99631C173.797 0.99631 174.475 3.11347 174.475 4.28413V17.5101C174.475 25.381 179.415 27 183.701 27C187.842 27 192.055 23.5627 192.055 16.5387L192.201 4.28413C192.201 3.13838 192.879 0.99631 194.041 0.99631V0.44834H188.956V0.99631Z" fill="#0B2739"/>
<path d="M234.796 0.99631C235.91 0.99631 236.637 3.11347 236.637 4.28413L236.782 16.4889C236.782 21.1218 234.796 25.1817 229.856 25.1817C226.006 25.1817 223.245 21.3459 223.245 17.1863V4.28413C223.245 3.13838 223.923 0.99631 225.062 0.99631V0.44834H218.426V0.99631C219.613 0.99631 220.315 3.11347 220.315 4.28413V17.5101C220.315 25.381 225.255 27 229.541 27C233.682 27 237.896 23.5627 237.896 16.5387L238.041 4.28413C238.041 3.13838 238.743 0.99631 239.906 0.99631V0.44834H234.82V0.99631H234.796Z" fill="#0B2739"/>
<path d="M253.442 25.4308C250.391 25.4308 249.011 24.2103 249.011 21.6946V4.33395C249.011 3.13838 249.737 1.04613 250.851 1.04613V0.44834H244.144V1.04613C245.354 1.04613 246.032 3.13838 246.032 4.33395V22.7408C246.032 23.9364 245.354 26.0286 244.144 26.0286V26.5766H260.707V20.7232H260.102C260.078 22.5913 259.496 25.4308 253.442 25.4308Z" fill="#0B2739"/>
<path d="M213.511 0.44834H197.722V0.99631C198.908 0.99631 199.611 2.98893 199.611 4.1845V22.8902C199.611 24.0858 198.908 26.0286 197.722 26.0286V26.5766H213.511C213.922 26.5766 214.286 26.2279 214.286 25.7795V21.4954H213.777C213.777 23.7371 211.67 25.4806 206.125 25.4806H203.824C203.146 25.4806 202.613 24.9327 202.613 24.2352V13.9732C206.052 13.9732 209.612 14.3967 209.612 16.2897H210.12V10.81H209.612C209.612 12.6282 206.052 13.1264 202.613 13.1264V1.56919C203.824 1.56919 205.544 1.56919 206.125 1.56919C211.719 1.56919 213.777 3.23801 213.777 5.57934H214.286V1.04613C214.286 0.523063 213.995 0.44834 213.511 0.44834Z" fill="#0B2739"/>
<path d="M272.839 1.56919C278.433 1.56919 280.491 3.23801 280.491 5.57934H281V1.04613C281 0.523063 280.709 0.44834 280.225 0.44834H264.436V0.99631C265.623 0.99631 266.325 2.98893 266.325 4.1845V22.8902C266.325 24.0858 265.623 26.0286 264.436 26.0286V26.5766H280.225C280.637 26.5766 281 26.2279 281 25.7795V21.4954H280.491C280.491 23.7371 278.385 25.4806 272.839 25.4806H270.539C269.861 25.4806 269.328 24.9327 269.328 24.2352V13.9732C272.767 13.9732 276.326 14.3967 276.326 16.2897H276.835V10.81H276.326C276.326 12.6282 272.767 13.1264 269.328 13.1264V1.56919C270.539 1.56919 272.234 1.56919 272.839 1.56919Z" fill="#0B2739"/>
<path d="M161.156 10.5111H160.187V11.059H161.156C163.917 11.059 165.079 11.9806 165.515 14.2223C166.096 18.7057 164.159 22.6411 160.478 24.1605C155.756 26.1282 150.017 23.0646 146.941 17.012C144.06 11.2334 145.827 4.78229 150.574 2.81458C153.988 1.39483 157.935 2.49078 160.987 5.40498C161.665 6.05258 162.73 6.05258 163.384 5.35517C164.135 4.58303 164.038 3.33764 163.214 2.69004C161.083 0.99631 158.42 0 155.49 0C148.297 0 142.704 6.00277 142.704 13.4502C142.704 20.8976 148.297 26.9253 155.49 26.9253C162.682 26.9253 168.275 20.8727 168.275 13.4502V13.5C168.275 12.3542 168.663 11.0341 169.607 11.0341H171.157V10.4862H161.156V10.5111Z" fill="#0B2739"/>
</svg>
